<svg width="70" height="100" viewBox="0 0 70 100" fill="none" xmlns="http://www.w3.org/2000/svg">
<path d="M65.4271 9.6698H3.66515C1.64094 9.6698 0 11.321 0 13.3578V95.7766C0 97.8134 1.64094 99.4646 3.66515 99.4646H65.4271C67.4513 99.4646 69.0923 97.8134 69.0923 95.7766V13.3578C69.0923 11.321 67.4513 9.6698 65.4271 9.6698Z" fill="#EB8317"/>
<path d="M63.5773 12.844H5.51503C4.82069 12.844 4.25781 13.4104 4.25781 14.109V95.0253C4.25781 95.724 4.82069 96.2904 5.51503 96.2904H63.5773C64.2716 96.2904 64.8345 95.724 64.8345 95.0253V14.109C64.8345 13.4104 64.2716 12.844 63.5773 12.844Z" fill="#F3C623"/>
<path d="M63.0264 91.9834H6.06602C5.92398 91.9834 5.80884 92.0993 5.80884 92.2422C5.80884 92.3851 5.92398 92.501 6.06602 92.501H63.0264C63.1684 92.501 63.2836 92.3851 63.2836 92.2422C63.2836 92.0993 63.1684 91.9834 63.0264 91.9834Z" fill="white"/>
<path d="M61.0556 93.4017H8.03682C7.9848 93.4017 7.94263 93.4441 7.94263 93.4965V93.4965C7.94263 93.5489 7.9848 93.5913 8.03682 93.5913H61.0556C61.1077 93.5913 61.1498 93.5489 61.1498 93.4965V93.4965C61.1498 93.4441 61.1077 93.4017 61.0556 93.4017Z" fill="white"/>
<path d="M61.0556 93.9349H8.03682C7.9848 93.9349 7.94263 93.9774 7.94263 94.0297V94.0298C7.94263 94.0822 7.9848 94.1246 8.03682 94.1246H61.0556C61.1077 94.1246 61.1498 94.0822 61.1498 94.0298V94.0297C61.1498 93.9774 61.1077 93.9349 61.0556 93.9349Z" fill="white"/>
<path d="M62.9538 93.7217H6.13855V15.4128H62.9538V93.7217ZM6.56058 93.2971H62.5317V15.8375H6.56058V93.2971Z" fill="white"/>
<path d="M52.8465 14.8905C52.6851 14.4661 52.3994 14.101 52.0273 13.8435C51.6552 13.586 51.2142 13.4482 50.7626 13.4483L50.0375 9.30282C49.9099 8.57265 49.6264 7.87905 49.2064 7.26992C48.7864 6.6608 48.24 6.15067 47.6049 5.77476V4.28889C47.6051 4.1489 47.584 4.00972 47.5425 3.87612C47.501 3.74244 47.4401 3.61566 47.3619 3.49987C47.2346 3.31402 47.0645 3.16205 46.866 3.05701C46.6675 2.95197 46.4466 2.89701 46.2224 2.89686H37.6552C37.5949 2.10871 37.2412 1.37251 36.6648 0.835435C36.0883 0.298363 35.3317 0 34.5461 0C33.7605 0 33.0039 0.298363 32.4275 0.835435C31.8511 1.37251 31.4973 2.10871 31.437 2.89686H22.8707C22.5755 2.89686 22.288 2.99192 22.0504 3.16812C21.8127 3.34431 21.6373 3.59241 21.5499 3.87612C21.5082 4.0097 21.4871 4.14889 21.4873 4.28889V5.77519C20.8523 6.15109 20.3059 6.66122 19.8859 7.27035C19.4659 7.87947 19.1823 8.57308 19.0547 9.30325L18.3297 13.4488C17.8781 13.4486 17.4371 13.5864 17.065 13.8439C16.6929 14.1014 16.4072 14.4665 16.2457 14.8909L15.7681 16.1462H53.3243L52.8465 14.8905ZM34.5466 0.958297C34.7352 0.958381 34.9195 1.01473 35.0762 1.12021C35.233 1.22568 35.3551 1.37556 35.4272 1.55088C35.4992 1.7262 35.518 1.9191 35.4812 2.10517C35.4443 2.29123 35.3534 2.46213 35.22 2.59623C35.0867 2.73033 34.9167 2.82162 34.7318 2.85855C34.5468 2.89548 34.3552 2.8764 34.181 2.80371C34.0068 2.73103 33.858 2.60801 33.7533 2.4502C33.6486 2.2924 33.5928 2.10691 33.5928 1.91717C33.5931 1.66279 33.6937 1.41889 33.8725 1.23909C34.0513 1.05929 34.2938 0.958297 34.5466 0.958297ZM44.0903 5.84611C44.0184 5.91853 43.933 5.97592 43.839 6.01499C43.745 6.05405 43.6442 6.07402 43.5425 6.07372H37.559C37.4437 6.59245 37.1562 7.05619 36.744 7.38856C36.3317 7.72094 35.8193 7.90213 35.291 7.9023H33.8012C33.273 7.90219 32.7605 7.72102 32.3482 7.38864C31.936 7.05625 31.6485 6.59248 31.5333 6.07372H25.5497C25.3444 6.07372 25.1474 5.99162 25.0021 5.84549C24.8569 5.69935 24.7753 5.50115 24.7753 5.29448C24.7753 5.08781 24.8569 4.8896 25.0021 4.74346C25.1474 4.59733 25.3444 4.51523 25.5497 4.51523H43.5424C43.6957 4.51519 43.8455 4.56089 43.9729 4.64655C44.1004 4.73221 44.1997 4.85398 44.2583 4.99646C44.317 5.13893 44.3323 5.2957 44.3024 5.44695C44.2724 5.59819 44.1986 5.7371 44.0902 5.84611H44.0903Z" fill="#10375C"/>
</svg>
